<svg xmlns="http://www.w3.org/2000/svg" width="327" height="224" fill="none" viewBox="0 0 327 224"><path fill="#447ED3" fill-rule="evenodd" d="M268.731 224.823L341.86 290.208L441.756 266.275L368.627 200.891L268.731 224.823Z" clip-rule="evenodd"/><path fill="#4A85D6" fill-rule="evenodd" d="M295.498 135.507L268.731 224.824L368.627 200.892L395.394 111.575L295.498 135.507Z" clip-rule="evenodd"/><path fill="#447ED3" fill-rule="evenodd" d="M95.7066 183.371L168.835 248.756L268.731 224.823L195.603 159.439L95.7066 183.371Z" clip-rule="evenodd"/><path fill="#4A85D6" fill-rule="evenodd" d="M122.473 94.0551L95.7061 183.372L195.602 159.44L222.369 70.1228L122.473 94.0551Z" clip-rule="evenodd"/><path fill="#457BCD" fill-rule="evenodd" d="M222.369 70.1229L295.498 135.507L268.731 224.824L195.602 159.44L222.369 70.1229Z" clip-rule="evenodd"/><path fill="#447ED3" fill-rule="evenodd" d="M222.369 70.1228L295.498 135.507L395.394 111.575L322.265 46.1905L222.369 70.1228Z" clip-rule="evenodd"/><path fill="#4A85D6" fill-rule="evenodd" d="M249.137 -19.1944L222.369 70.1224L322.265 46.19L349.032 -43.1267L249.137 -19.1944Z" clip-rule="evenodd"/><path fill="#457BCD" fill-rule="evenodd" d="M349.032 -43.1266L422.161 22.2578L395.394 111.575L322.265 46.1902L349.032 -43.1266Z" clip-rule="evenodd"/><path fill="#447ED3" fill-rule="evenodd" d="M49.3443 28.6708L122.473 94.0551L222.369 70.1228L149.24 4.73846L49.3443 28.6708Z" clip-rule="evenodd"/><path fill="#4A85D6" fill-rule="evenodd" d="M76.1114 -60.6463L49.3443 28.6704L149.24 4.7381L176.007 -84.5787L76.1114 -60.6463Z" clip-rule="evenodd"/><path fill="#457BCD" fill-rule="evenodd" d="M176.007 -84.5786L249.136 -19.1942L222.369 70.1226L149.24 4.73815L176.007 -84.5786Z" clip-rule="evenodd"/><path fill="#447ED3" fill-rule="evenodd" d="M176.008 -84.5785L249.136 -19.1941L349.032 -43.1265L275.904 -108.511L176.008 -84.5785Z" clip-rule="evenodd"/></svg>