<svg width="1280" height="615" viewBox="0 0 1280 615" fill="none" xmlns="http://www.w3.org/2000/svg">
<path d="M1280 0H0V549H1280V0Z" fill="url(#paint0_linear)"/>
<path fill-rule="evenodd" clip-rule="evenodd" d="M978.041 445.433L1080.53 537.073L1220.54 503.53L1118.05 411.891L978.041 445.433Z" fill="#447ED3"/>
<path fill-rule="evenodd" clip-rule="evenodd" d="M1015.56 320.252L978.041 445.434L1118.05 411.892L1155.56 286.71L1015.56 320.252Z" fill="#4A85D6"/>
<path fill-rule="evenodd" clip-rule="evenodd" d="M1155.56 286.71L1258.06 378.35L1220.54 503.531L1118.05 411.892L1155.56 286.71Z" fill="#457BCD"/>
<path fill-rule="evenodd" clip-rule="evenodd" d="M1155.57 286.71L1258.06 378.349L1398.07 344.807L1295.57 253.168L1155.57 286.71Z" fill="#447ED3"/>
<path fill-rule="evenodd" clip-rule="evenodd" d="M1193.08 161.528L1155.57 286.71L1295.57 253.167L1333.09 127.986L1193.08 161.528Z" fill="#4A85D6"/>
<path fill-rule="evenodd" clip-rule="evenodd" d="M1333.09 127.986L1435.58 219.626L1398.07 344.807L1295.57 253.168L1333.09 127.986Z" fill="#457BCD"/>
<path fill-rule="evenodd" clip-rule="evenodd" d="M735.539 387.336L838.032 478.976L978.041 445.433L875.547 353.794L735.539 387.336Z" fill="#447ED3"/>
<path fill-rule="evenodd" clip-rule="evenodd" d="M773.053 262.156L735.538 387.337L875.547 353.795L913.062 228.613L773.053 262.156Z" fill="#4A85D6"/>
<path fill-rule="evenodd" clip-rule="evenodd" d="M913.062 228.614L1015.56 320.253L978.04 445.434L875.547 353.795L913.062 228.614Z" fill="#457BCD"/>
<path fill-rule="evenodd" clip-rule="evenodd" d="M913.062 228.613L1015.56 320.253L1155.56 286.71L1053.07 195.071L913.062 228.613Z" fill="#447ED3"/>
<path fill-rule="evenodd" clip-rule="evenodd" d="M950.578 103.431L913.062 228.613L1053.07 195.07L1090.59 69.889L950.578 103.431Z" fill="#4A85D6"/>
<path fill-rule="evenodd" clip-rule="evenodd" d="M1090.59 69.8893L1193.08 161.528L1155.56 286.71L1053.07 195.071L1090.59 69.8893Z" fill="#457BCD"/>
<path fill-rule="evenodd" clip-rule="evenodd" d="M1090.59 69.889L1193.08 161.528L1333.09 127.986L1230.6 36.3468L1090.59 69.889Z" fill="#447ED3"/>
<path fill-rule="evenodd" clip-rule="evenodd" d="M1128.1 -55.2916L1090.59 69.8899L1230.6 36.3476L1268.11 -88.8338L1128.1 -55.2916Z" fill="#4A85D6"/>
<path fill-rule="evenodd" clip-rule="evenodd" d="M1268.11 -88.834L1370.6 2.80516L1333.09 127.987L1230.6 36.3475L1268.11 -88.834Z" fill="#457BCD"/>
<path fill-rule="evenodd" clip-rule="evenodd" d="M670.56 170.517L773.054 262.156L913.062 228.613L810.569 136.974L670.56 170.517Z" fill="#447ED3"/>
<path fill-rule="evenodd" clip-rule="evenodd" d="M708.075 45.3346L670.56 170.516L810.569 136.974L848.084 11.7924L708.075 45.3346Z" fill="#4A85D6"/>
<path fill-rule="evenodd" clip-rule="evenodd" d="M848.084 11.7925L950.577 103.432L913.062 228.613L810.569 136.974L848.084 11.7925Z" fill="#457BCD"/>
<path fill-rule="evenodd" clip-rule="evenodd" d="M848.084 11.7926L950.578 103.432L1090.59 69.8895L988.093 -21.7496L848.084 11.7926Z" fill="#447ED3"/>
<path fill-rule="evenodd" clip-rule="evenodd" d="M885.599 -113.389L848.084 11.7927L988.092 -21.7496L1025.61 -146.931L885.599 -113.389Z" fill="#4A85D6"/>
<path fill-rule="evenodd" clip-rule="evenodd" d="M1025.61 -146.931L1128.1 -55.2922L1090.59 69.8892L988.093 -21.75L1025.61 -146.931Z" fill="#457BCD"/>
<defs>
<linearGradient id="paint0_linear" x1="1280" y1="274.904" x2="7.01675" y2="369.414" gradientUnits="userSpaceOnUse">
<stop stop-color="#427FD4"/>
<stop offset="1" stop-color="#64A4EF"/>
</linearGradient>
</defs>
</svg>
