<svg width="135" height="48" viewBox="0 0 135 48" fill="none" xmlns="http://www.w3.org/2000/svg">
<path d="M72.6332 27.8422C72.5812 27.5646 72.5118 27.2697 72.4424 26.9922C72.3557 26.6626 72.2342 26.3503 72.0954 26.0381C72.0781 26.0034 72.0607 25.9513 72.0434 25.9167C70.8291 23.2625 68.175 21.3717 65.1045 21.3196C62.4504 21.2676 60.0911 22.5686 58.6513 24.5636C58.3391 24.9799 58.0788 25.4483 57.8533 25.934C57.836 25.9687 57.8186 26.0034 57.8013 26.0554C57.6625 26.3677 57.5584 26.6799 57.4543 27.0095C57.3676 27.2871 57.3156 27.5646 57.2635 27.8596C57.2115 28.1198 57.1768 28.3973 57.1594 28.6749C57.1421 28.9004 57.1421 29.1086 57.1421 29.3341C57.1421 29.6984 57.1768 30.0627 57.2462 30.4096C57.2982 30.7392 57.3676 31.0515 57.4543 31.3637C58.3911 34.573 61.3228 36.9669 64.8096 37.0363C67.4637 37.0883 69.8229 35.7873 71.2628 33.7923L67.2382 32.3178C66.6657 32.8556 65.9198 33.1678 65.1392 33.2025C63.7861 33.2719 62.6412 32.5954 62.034 31.3464C61.8952 31.0515 61.7738 30.7392 61.7044 30.3923H61.9646H68.2964H72.6852C72.7199 30.1667 72.7546 29.9239 72.772 29.681C72.7893 29.4555 72.7893 29.2473 72.7893 29.0218C72.7373 28.6228 72.7026 28.2238 72.6332 27.8422ZM61.6524 27.8422C61.7391 27.5473 61.8432 27.2524 61.982 26.9922C62.1728 26.6279 62.3983 26.3156 62.6759 26.0381H62.6932H62.6759C62.7106 26.0034 62.7626 25.9687 62.7973 25.934C63.3524 25.4483 64.029 25.136 64.7575 25.1013C65.6596 25.0493 66.4576 25.3615 67.0821 25.934C67.1168 25.9687 67.1688 26.0034 67.2035 26.0554C67.4637 26.3156 67.6892 26.6452 67.8627 27.0095C67.9841 27.2697 68.0882 27.5473 68.175 27.8596H67.6372H61.6524V27.8422Z" fill="white"/>
<path d="M21.979 10.8419C21.979 7.87555 20.1749 5.3255 17.6075 4.23262C16.7402 3.86832 15.8034 3.66016 14.8146 3.66016H6.36647H6.34912L6.36647 23.6443H10.7206V18.0064H13.9472L16.7055 23.6443H21.4586L18.1973 17.1564C20.4525 15.9421 21.979 13.5655 21.979 10.8419ZM17.6249 10.8419C17.6249 12.4032 16.3585 13.6696 14.7973 13.6696H10.7206V8.01433H14.7973C16.3585 8.01433 17.6249 9.28069 17.6249 10.8419Z" fill="white"/>
<path d="M27.3915 17.2431V15.6992L23.6965 19.0819L27.3915 22.6208V21.0769C30.913 21.0769 33.012 24.13 33.012 27.2352C33.012 30.3403 30.8436 33.4976 27.3915 33.4976C23.6444 33.4976 21.7709 30.3403 21.7709 27.2352H17.3994C17.3994 32.7516 21.875 37.2272 27.3915 37.2272C32.9079 37.2272 37.3835 32.7516 37.3835 27.2352C37.4009 21.7014 32.9253 17.2431 27.3915 17.2431Z" fill="white"/>
<path d="M119.488 30.8433C119.003 32.3005 117.806 33.1331 116.47 33.2025C114.943 33.2719 113.694 32.4046 113.139 30.8259C113.018 30.479 112.931 30.0974 112.896 29.681C112.879 29.4555 112.862 29.23 112.862 28.9871C112.862 28.8831 112.862 28.7616 112.879 28.6575C112.914 28.2412 112.983 27.8596 113.122 27.4953C113.625 26.0901 114.805 25.1534 116.123 25.084C117.65 25.0146 118.899 25.9167 119.436 27.5126L123.721 26.7493C122.715 23.6615 119.835 21.3717 116.453 21.3196C112.914 21.2502 109.913 23.5748 108.872 26.7493C108.646 27.4259 108.525 28.1545 108.49 28.9004C108.49 29.0392 108.49 29.178 108.49 29.3167C108.49 29.3514 108.49 29.4035 108.49 29.4382C108.508 30.1841 108.646 30.8953 108.872 31.5892C109.878 34.6771 112.758 36.9669 116.14 37.0189C119.679 37.0883 122.68 34.7638 123.721 31.5892L119.488 30.8433Z" fill="white"/>
<path d="M130.209 21.7881H125.855V36.6894H130.209V21.7881Z" fill="white"/>
<path d="M129.897 18.8737H126.236C126.046 18.8737 125.872 18.7176 125.872 18.5094V14.8665C125.872 14.6757 126.028 14.5022 126.236 14.5022H129.897C130.087 14.5022 130.261 14.6583 130.261 14.8665V18.5268C130.261 18.7176 130.087 18.8737 129.897 18.8737Z" fill="white"/>
<path d="M105.749 27.2005C104.413 25.5004 101.1 24.3208 99.4866 23.731C98.0467 23.2106 97.5263 22.7943 97.5437 22.083C97.5957 20.7299 98.9141 20.435 99.7988 20.435C101.759 20.435 102.054 22.4994 102.054 22.4994L105.905 21.5452C105.905 21.5452 105.159 16.6707 99.157 16.6707C97.2141 16.6707 95.0977 17.8156 93.9875 19.2728C92.9987 20.5738 92.8772 22.1698 93.5191 23.7657C94.3691 25.8994 96.1212 26.5413 97.8906 27.1831C99.209 27.6688 100.978 28.1546 102.089 29.2648C102.626 29.8026 102.731 30.722 102.349 31.5026C101.95 32.3526 100.822 32.9424 99.7294 32.9424C97.3355 32.9424 96.364 30.7914 96.3294 30.7046L96.2079 30.4097L91.8711 31.2771L91.9752 31.6414C91.9925 31.6934 92.3742 32.9945 93.5364 34.3129C94.612 35.5272 96.5722 36.9844 99.8509 36.9844C102.644 36.9844 104.864 35.7874 106.061 33.619C107.189 31.6067 107.241 29.0913 105.749 27.2005Z" fill="white"/>
<path d="M48.2255 21.3371C46.6468 21.3024 45.0162 21.7534 44.1662 22.5514V21.8228H39.812V43.6631H44.1662V35.8568C44.9295 36.5854 46.4734 37.019 47.9305 37.0537C52.3541 37.1405 55.4766 33.4802 55.4072 29.0566C55.3205 24.8759 52.3888 21.4238 48.2255 21.3371ZM47.7744 33.2373C45.7448 33.3414 44.1835 31.7628 44.1662 29.074V28.9699C44.1835 26.7841 45.6754 25.1882 47.4101 25.1014C49.4398 24.9974 51.0184 26.68 51.0184 29.3689C51.0184 31.7455 49.5092 33.1332 47.7744 33.2373Z" fill="white"/>
<path d="M82.7468 21.3892C80.1447 21.3892 78.9304 23.1065 78.9304 23.1065V21.7881H74.8711V36.6895H78.9304C78.9304 36.6895 78.9304 31.971 78.9304 29.6812C78.9304 27.2352 80.0579 25.2923 82.0529 25.2923C84.0478 25.2923 85.1234 27.027 85.1234 29.6812V36.6895H89.2347C89.2347 36.6895 89.2347 29.9934 89.2347 28.3801C89.2347 26.7842 88.853 21.3892 82.7468 21.3892Z" fill="white"/>
</svg>
