<svg width="57" height="57" viewBox="0 0 57 57" fill="none" xmlns="http://www.w3.org/2000/svg">
<circle opacity="0.2" cx="28.5" cy="28.5" r="28.5" fill="#5391E1"/>
<path d="M54 24.2778V24.2746C54 24.2446 53.9983 24.2149 53.9959 24.1853C53.9951 24.1772 53.9941 24.1692 53.9932 24.1611C53.9907 24.1379 53.9875 24.1149 53.9835 24.0921C53.982 24.0835 53.9805 24.0749 53.9788 24.0664C53.9732 24.0387 53.9668 24.0111 53.959 23.984C53.9582 23.9814 53.9576 23.9786 53.9568 23.9759C53.9486 23.9482 53.939 23.921 53.9286 23.8942C53.9247 23.8839 53.9203 23.8738 53.916 23.8637C53.9084 23.8455 53.9002 23.8276 53.8914 23.8099C53.8864 23.7997 53.8815 23.7893 53.8762 23.7792C53.863 23.7545 53.849 23.7303 53.834 23.7067C53.8284 23.6979 53.8222 23.6895 53.8163 23.6808C53.8045 23.6636 53.7924 23.6467 53.7796 23.6303C53.7728 23.6215 53.766 23.6128 53.7589 23.6041C53.7404 23.5817 53.7213 23.5598 53.7009 23.5389C53.6993 23.5373 53.6977 23.5356 53.6961 23.534C53.6743 23.5118 53.6511 23.4909 53.6273 23.4707C53.6243 23.4681 53.6218 23.4653 53.6188 23.4629L51.8203 21.9705V17.3841C51.8203 16.0271 50.7163 14.9231 49.3594 14.9231H43.3283L38.4697 10.8911C37.0385 9.70363 34.9613 9.70363 33.5303 10.8911L28.6718 14.9231H22.6406C21.2837 14.9231 20.1797 16.027 20.1797 17.384V21.9704L18.3812 23.463C18.3782 23.4655 18.3756 23.4683 18.3727 23.4708C18.3488 23.4911 18.3256 23.512 18.3038 23.5341C18.3022 23.5357 18.3007 23.5374 18.299 23.539C18.2787 23.5599 18.2595 23.5818 18.241 23.6043C18.2339 23.6128 18.2271 23.6216 18.2203 23.6304C18.2076 23.6469 18.1954 23.6638 18.1837 23.681C18.1778 23.6896 18.1716 23.6981 18.1659 23.7069C18.1509 23.7304 18.1369 23.7546 18.1238 23.7793C18.1183 23.7895 18.1135 23.7998 18.1085 23.8101C18.0998 23.8277 18.0916 23.8457 18.0839 23.8638C18.0796 23.8739 18.0752 23.884 18.0713 23.8943C18.0609 23.9212 18.0513 23.9483 18.0431 23.9761C18.0423 23.9788 18.0417 23.9814 18.0409 23.9842C18.0331 24.0112 18.0267 24.0388 18.0211 24.0666C18.0194 24.0752 18.0179 24.0837 18.0165 24.0922C18.0124 24.115 18.0092 24.138 18.0067 24.1612C18.0058 24.1693 18.0048 24.1773 18.0041 24.1854C18.0017 24.2149 18 24.2446 18 24.2746V24.2778V24.2784V42.1326C18 43.2378 18.4667 44.2354 19.2126 44.9408C19.2338 44.962 19.255 44.9829 19.2776 45.002C19.9637 45.6217 20.8721 45.9997 21.8672 45.9997H50.1328C51.128 45.9997 52.0365 45.6216 52.7226 45.0018C52.745 44.9828 52.7661 44.962 52.7871 44.941C53.5331 44.2356 54 43.2378 54 42.1325V24.2784C54 24.2782 54 24.278 54 24.2778ZM22.6406 17.0324H49.3594C49.5532 17.0324 49.7109 17.1902 49.7109 17.384V25.5882L49.1141 26.0835L37.1226 36.035C36.4721 36.5748 35.5279 36.5747 34.8774 36.035L22.8859 26.0836L22.2891 25.5882V17.384C22.2891 17.1902 22.4468 17.0324 22.6406 17.0324ZM20.1094 42.1326V26.5204L20.563 26.8969C20.5633 26.8971 20.5636 26.8974 20.5639 26.8976L30.8625 35.4442L20.2174 42.7393C20.1476 42.5501 20.1094 42.3457 20.1094 42.1326ZM32.5503 36.8448L33.5303 37.6582C34.9613 38.8458 37.0387 38.8457 38.4697 37.6582L39.4497 36.8448L49.7308 43.8904H22.2691L32.5503 36.8448ZM41.1375 35.4443L51.4361 26.8976C51.4363 26.8974 51.4366 26.8971 51.4369 26.8969L51.8906 26.5204V42.1326C51.8906 42.3457 51.8524 42.5501 51.7826 42.7393L41.1375 35.4443ZM34.8774 12.5144C35.5279 11.9746 36.4721 11.9746 37.1226 12.5144L40.0252 14.9231H31.9748L34.8774 12.5144Z" fill="#484F5E"/>
<path d="M27.2461 21.6011C27.2461 22.1835 27.7183 22.6558 28.3008 22.6558H38.2852C38.8676 22.6558 39.3398 22.1835 39.3398 21.6011C39.3398 21.0186 38.8676 20.5464 38.2852 20.5464H28.3008C27.7183 20.5464 27.2461 21.0186 27.2461 21.6011Z" fill="#484F5E"/>
<path d="M28.3008 26.8745H43.6992C44.1906 26.8745 44.6022 26.538 44.7194 26.0832C44.7411 25.9988 44.7539 25.9109 44.7539 25.8198C44.7539 25.2374 44.2817 24.7651 43.6992 24.7651H28.3008C27.7183 24.7651 27.2461 25.2374 27.2461 25.8198C27.2461 25.9109 27.2589 25.9989 27.2806 26.0832C27.3978 26.5381 27.8094 26.8745 28.3008 26.8745Z" fill="#484F5E"/>
</svg>
