<svg xmlns="http://www.w3.org/2000/svg" xmlns:xlink="http://www.w3.org/1999/xlink" id="Layer_1" x="0" y="0" enable-background="new -91 49.217 56.693 56.693" version="1.1" viewBox="-91 49.217 56.693 56.693" xml:space="preserve"><g><rect width="19.246" height="4.11" x="-71.708" y="71.981" transform="matrix(0.8613 0.508 -0.508 0.8613 29.0038 41.8064)"/><rect width="19.246" height="4.111" x="-74.627" y="79.288" transform="matrix(0.9657 0.2596 -0.2596 0.9657 18.8887 19.6645)"/><rect width="19.246" height="4.111" x="-75.836" y="86.33" transform="matrix(0.9958 0.0917 -0.0917 0.9958 7.83 6.4478)"/><rect width="19.247" height="4.111" x="-76.153" y="92.497"/><path d="M-53.6363,99.8858h-25.2446v-16.805h-3.2878v20.0301h0.0327c0,0.0156,0.9598,0.0156,0.9598,0.0156h30.7952v-0.0156 c0.0324,0,0.0324-0.9601,0.0324-0.9601V83.0808h-3.2877V99.8858z"/><rect width="19.247" height="4.11" x="-65.43" y="65.428" transform="matrix(-0.5634 -0.8262 0.8262 -0.5634 -143.0016 59.4012)"/><rect width="4.111" height="19.246" x="-49.626" y="54.571" transform="matrix(0.9853 -0.171 0.171 0.9853 -11.6767 -7.1886)"/></g></svg>