<svg width="32" height="32" viewBox="0 0 32 32" fill="none" xmlns="http://www.w3.org/2000/svg">
<path d="M30.2398 1.76026C29.0667 0.586825 27.6532 0 26.0006 0H6.00045C4.34783 0 2.9344 0.586825 1.76075 1.76026C0.587314 2.9339 0.000488281 4.34726 0.000488281 5.99996V25.9999C0.000488281 27.6524 0.587314 29.0659 1.76075 30.2396C2.9344 31.4132 4.34783 32 6.00045 32H26.0004C27.653 32 29.0664 31.4132 30.2396 30.2396C31.4132 29.0659 32 27.6525 32 25.9999V5.99996C32 4.34726 31.4132 2.93369 30.2398 1.76026ZM26.126 10.6039C25.9309 11.6178 25.3583 13.191 24.4066 15.3225C23.4547 17.4546 22.2573 19.4858 20.8127 21.4163C19.1597 23.6385 17.4236 25.2844 15.6046 26.3544C15.1322 26.6456 14.6044 26.8649 14.0212 27.0104C13.4379 27.156 12.8475 27.1456 12.2503 26.9789C11.4029 26.6178 10.6878 25.7496 10.1044 24.3747C9.81277 23.666 9.41684 22.298 8.91692 20.2704C8.41707 18.3121 8.04879 17.0135 7.81281 16.3748C7.74349 16.194 7.65658 15.9127 7.55253 15.5309C7.44825 15.1489 7.34412 14.8158 7.24014 14.5308C7.13601 14.246 7.00766 13.9789 6.85471 13.7287C6.61873 13.3259 6.33057 13.1177 5.99024 13.1037C5.65012 13.0899 5.24704 13.1628 4.782 13.3223C4.31689 13.4821 3.93846 13.5407 3.64666 13.4993C3.48021 13.4716 3.33091 13.3327 3.19891 13.0827C3.06691 12.833 2.88974 12.6525 2.66747 12.5412V12.3953C3.22299 12.0062 4.07368 11.2981 5.21945 10.2699C6.3653 9.24216 7.31318 8.50611 8.06317 8.06173C9.03542 7.49227 9.91734 7.31853 10.7091 7.54079C11.0839 7.652 11.4348 7.92972 11.761 8.37411C12.0872 8.81857 12.3338 9.29776 12.5006 9.81169C12.6535 10.2977 12.8895 11.4364 13.2089 13.2283C13.2506 13.5059 13.3099 14.0025 13.386 14.7177C13.4623 15.433 13.5319 16.0162 13.5942 16.4676C13.6566 16.9192 13.7886 17.4261 13.9902 17.9882C14.1913 18.551 14.4516 18.9991 14.7712 19.3324C15.3686 19.9712 15.9726 20.0686 16.5837 19.624C16.9727 19.3324 17.4657 18.6447 18.063 17.5619C18.7157 16.2984 19.0768 15.3051 19.1458 14.5829C19.2431 13.5274 19.0589 12.84 18.5939 12.5204C18.129 12.201 17.3408 12.0897 16.2296 12.1869C16.4519 11.5064 16.7611 10.8713 17.1566 10.2808C17.5526 9.69078 17.9656 9.20429 18.3962 8.82258C18.8274 8.44051 19.2754 8.10376 19.7401 7.81202C20.2056 7.52043 20.6047 7.30875 20.9385 7.17682C21.2716 7.04482 21.5563 6.95791 21.7926 6.91624C23.6674 6.63859 24.9659 6.95098 25.6886 7.85369C26.2021 8.50655 26.3479 9.42342 26.126 10.6039Z" fill="white"/>
</svg>
